<svg xmlns="http://www.w3.org/2000/svg" width="1200" height="675" viewBox="0 0 1200 675">
  <defs>
    <linearGradient id="bg" x1="0" y1="0" x2="1" y2="1"><stop offset="0%" stop-color="#0f0f1a"/><stop offset="100%" stop-color="#1a1a2e"/></linearGradient>
    <linearGradient id="accent" x1="0" y1="0" x2="1" y2="0"><stop offset="0%" stop-color="#6366f1"/><stop offset="100%" stop-color="#8b5cf6"/></linearGradient>
  </defs>
  <rect width="1200" height="675" fill="url(#bg)"/>
  <!-- Document icon -->
  <g transform="translate(600,270)" opacity="0.15">
    <rect x="-80" y="-100" width="160" height="200" rx="12" fill="none" stroke="#6366f1" stroke-width="3"/>
    <line x1="-50" y1="-40" x2="50" y2="-40" stroke="#6366f1" stroke-width="2"/>
    <line x1="-50" y1="-10" x2="50" y2="-10" stroke="#6366f1" stroke-width="2"/>
    <line x1="-50" y1="20" x2="40" y2="20" stroke="#6366f1" stroke-width="2"/>
    <line x1="-50" y1="50" x2="30" y2="50" stroke="#6366f1" stroke-width="2"/>
    <rect x="20" y="-100" width="30" height="30" rx="4" fill="#6366f1" opacity="0.3"/>
  </g>
  <!-- Device mockups -->
  <g transform="translate(340,260)">
    <rect x="0" y="0" width="200" height="140" rx="8" fill="none" stroke="#6366f1" stroke-width="1.5" opacity="0.5"/>
    <rect x="15" y="10" width="170" height="18" rx="4" fill="#6366f1" opacity="0.15"/>
    <rect x="15" y="38" width="170" height="90" rx="4" fill="none" stroke="#6366f1" stroke-width="1" opacity="0.3"/>
    <line x1="35" y1="55" x2="120" y2="55" stroke="#6366f1" stroke-width="1" opacity="0.4"/>
    <line x1="35" y1="70" x2="100" y2="70" stroke="#6366f1" stroke-width="1" opacity="0.3"/>
    <line x1="35" y1="85" x2="140" y2="85" stroke="#6366f1" stroke-width="1" opacity="0.3"/>
    <text x="15" y="105" fill="#6366f1" font-size="8" opacity="0.6" font-family="system-ui">E-SIGNATURE</text>
  </g>
  <g transform="translate(660,290)">
    <rect x="0" y="0" width="160" height="120" rx="8" fill="none" stroke="#8b5cf6" stroke-width="1.5" opacity="0.5"/>
    <rect x="12" y="8" width="136" height="16" rx="4" fill="#8b5cf6" opacity="0.15"/>
    <circle cx="40" cy="70" r="16" fill="none" stroke="#8b5cf6" stroke-width="1" opacity="0.4"/>
    <line x1="72" y1="63" x2="130" y2="63" stroke="#8b5cf6" stroke-width="1" opacity="0.4"/>
    <line x1="72" y1="77" x2="110" y2="77" stroke="#8b5cf6" stroke-width="1" opacity="0.3"/>
  </g>
  <!-- Title text -->
  <text x="600" y="460" text-anchor="middle" fill="white" font-size="36" font-weight="700" font-family="system-ui">Digital Tattoo Waivers</text>
  <text x="600" y="495" text-anchor="middle" fill="#9ca3af" font-size="18" font-family="system-ui">Paperless consent forms &amp; e-signatures</text>
</svg>